<svg class="main-svg" xmlns="http://www.w3.org/2000/svg" xmlns:xlink="http://www.w3.org/1999/xlink" width="5000" height="5000" style="" viewBox="0 0 500 500"><rect x="0" y="0" width="500" height="500" style="fill: rgb(255, 255, 255); fill-opacity: 1;"/><defs id="defs-26695e"><g class="clips"><clipPath id="clip26695exyplot" class="plotclip"><rect width="340" height="320"/></clipPath><clipPath class="axesclip" id="clip26695ex"><rect x="80" y="0" width="340" height="500"/></clipPath><clipPath class="axesclip" id="clip26695ey"><rect x="0" y="100" width="500" height="320"/></clipPath><clipPath class="axesclip" id="clip26695exy"><rect x="80" y="100" width="340" height="320"/></clipPath></g><g class="gradients"/><g class="patterns"/></defs><g class="bglayer"><rect class="bg" x="80" y="100" width="340" height="320" style="fill: rgb(229, 236, 246); fill-opacity: 1; stroke-width: 0px;"/></g><g class="layer-below"><g class="imagelayer"/><g class="shapelayer"/></g><g class="cartesianlayer"><g class="subplot xy"><g class="layer-subplot"><g class="shapelayer"/><g class="imagelayer"/></g><g class="minor-gridlayer"><g class="x"/><g class="y"/></g><g class="gridlayer"><g class="x"/><g class="y"><path class="ygrid crisp" transform="translate(0,358.39)" d="M80,0h340" style="stroke: rgb(255, 255, 255); stroke-opacity: 1; stroke-width: 1px;"/><path class="ygrid crisp" transform="translate(0,296.77)" d="M80,0h340" style="stroke: rgb(255, 255, 255); stroke-opacity: 1; stroke-width: 1px;"/><path class="ygrid crisp" transform="translate(0,235.16)" d="M80,0h340" style="stroke: rgb(255, 255, 255); stroke-opacity: 1; stroke-width: 1px;"/><path class="ygrid crisp" transform="translate(0,173.55)" d="M80,0h340" style="stroke: rgb(255, 255, 255); stroke-opacity: 1; stroke-width: 1px;"/><path class="ygrid crisp" transform="translate(0,111.93)" d="M80,0h340" style="stroke: rgb(255, 255, 255); stroke-opacity: 1; stroke-width: 1px;"/></g></g><g class="zerolinelayer"><path class="yzl zl crisp" transform="translate(0,420)" d="M80,0h340" style="stroke: rgb(255, 255, 255); stroke-opacity: 1; stroke-width: 2px;"/></g><path class="xlines-below"/><path class="ylines-below"/><g class="overlines-below"/><g class="xaxislayer-below"/><g class="yaxislayer-below"/><g class="overaxes-below"/><g class="plot" transform="translate(80,100)" clip-path="url(#clip26695exyplot)"><g class="barlayer mlayer"><g class="trace bars" style="opacity: 1;" shape-rendering="crispEdges"><g class="points"><g class="point"><path style="vector-effect: none; opacity: 1; stroke-width: 0px; fill: rgb(99, 110, 250); fill-opacity: 1;" d="M63.47,320V125.55H65.73V320Z"/></g><g class="point"><path style="vector-effect: none; opacity: 1; stroke-width: 0px; fill: rgb(99, 110, 250); fill-opacity: 1;" d="M65.73,320V66.4H68V320Z"/></g><g class="point"><path style="vector-effect: none; opacity: 1; stroke-width: 0px; fill: rgb(99, 110, 250); fill-opacity: 1;" d="M68,320V38.67H70.27V320Z"/></g><g class="point"><path style="vector-effect: none; opacity: 1; stroke-width: 0px; fill: rgb(99, 110, 250); fill-opacity: 1;" d="M70.27,320V16H72.53V320Z"/></g><g class="point"><path style="vector-effect: none; opacity: 1; stroke-width: 0px; fill: rgb(99, 110, 250); fill-opacity: 1;" d="M72.53,320V19.45H74.8V320Z"/></g><g class="point"><path style="vector-effect: none; opacity: 1; stroke-width: 0px; fill: rgb(99, 110, 250); fill-opacity: 1;" d="M74.8,320V40.77H77.07V320Z"/></g><g class="point"><path style="vector-effect: none; opacity: 1; stroke-width: 0px; fill: rgb(99, 110, 250); fill-opacity: 1;" d="M77.07,320V77H79.33V320Z"/></g><g class="point"><path style="vector-effect: none; opacity: 1; stroke-width: 0px; fill: rgb(99, 110, 250); fill-opacity: 1;" d="M79.33,320V95.11H81.6V320Z"/></g><g class="point"><path style="vector-effect: none; opacity: 1; stroke-width: 0px; fill: rgb(99, 110, 250); fill-opacity: 1;" d="M81.6,320V129.86H83.87V320Z"/></g><g class="point"><path style="vector-effect: none; opacity: 1; stroke-width: 0px; fill: rgb(99, 110, 250); fill-opacity: 1;" d="M83.87,320V158.7H86.13V320Z"/></g><g class="point"><path style="vector-effect: none; opacity: 1; stroke-width: 0px; fill: rgb(99, 110, 250); fill-opacity: 1;" d="M86.13,320V178.91H88.4V320Z"/></g><g class="point"><path style="vector-effect: none; opacity: 1; stroke-width: 0px; fill: rgb(99, 110, 250); fill-opacity: 1;" d="M88.4,320V197.51H90.67V320Z"/></g><g class="point"><path style="vector-effect: none; opacity: 1; stroke-width: 0px; fill: rgb(99, 110, 250); fill-opacity: 1;" d="M90.67,320V215.63H92.93V320Z"/></g><g class="point"><path style="vector-effect: none; opacity: 1; stroke-width: 0px; fill: rgb(99, 110, 250); fill-opacity: 1;" d="M92.93,320V216.61H95.2V320Z"/></g><g class="point"><path style="vector-effect: none; opacity: 1; stroke-width: 0px; fill: rgb(99, 110, 250); fill-opacity: 1;" d="M95.2,320V225.61H97.47V320Z"/></g><g class="point"><path style="vector-effect: none; opacity: 1; stroke-width: 0px; fill: rgb(99, 110, 250); fill-opacity: 1;" d="M97.47,320V229.06H99.73V320Z"/></g><g class="point"><path style="vector-effect: none; opacity: 1; stroke-width: 0px; fill: rgb(99, 110, 250); fill-opacity: 1;" d="M99.73,320V226.59H102V320Z"/></g><g class="point"><path style="vector-effect: none; opacity: 1; stroke-width: 0px; fill: rgb(99, 110, 250); fill-opacity: 1;" d="M102,320V226.35H104.27V320Z"/></g><g class="point"><path style="vector-effect: none; opacity: 1; stroke-width: 0px; fill: rgb(99, 110, 250); fill-opacity: 1;" d="M104.27,320V227.83H106.53V320Z"/></g><g class="point"><path style="vector-effect: none; opacity: 1; stroke-width: 0px; fill: rgb(99, 110, 250); fill-opacity: 1;" d="M106.53,320V230.66H108.8V320Z"/></g><g class="point"><path style="vector-effect: none; opacity: 1; stroke-width: 0px; fill: rgb(99, 110, 250); fill-opacity: 1;" d="M108.8,320V222.9H111.07V320Z"/></g><g class="point"><path style="vector-effect: none; opacity: 1; stroke-width: 0px; fill: rgb(99, 110, 250); fill-opacity: 1;" d="M111.07,320V214.15H113.33V320Z"/></g><g class="point"><path style="vector-effect: none; opacity: 1; stroke-width: 0px; fill: rgb(99, 110, 250); fill-opacity: 1;" d="M113.33,320V202.57H115.6V320Z"/></g><g class="point"><path style="vector-effect: none; opacity: 1; stroke-width: 0px; fill: rgb(99, 110, 250); fill-opacity: 1;" d="M115.6,320V195.54H117.87V320Z"/></g><g class="point"><path style="vector-effect: none; opacity: 1; stroke-width: 0px; fill: rgb(99, 110, 250); fill-opacity: 1;" d="M117.87,320V169.05H120.13V320Z"/></g><g class="point"><path style="vector-effect: none; opacity: 1; stroke-width: 0px; fill: rgb(99, 110, 250); fill-opacity: 1;" d="M120.13,320V150.07H122.4V320Z"/></g><g class="point"><path style="vector-effect: none; opacity: 1; stroke-width: 0px; fill: rgb(99, 110, 250); fill-opacity: 1;" d="M122.4,320V139.23H124.67V320Z"/></g><g class="point"><path style="vector-effect: none; opacity: 1; stroke-width: 0px; fill: rgb(99, 110, 250); fill-opacity: 1;" d="M124.67,320V105.46H126.93V320Z"/></g><g class="point"><path style="vector-effect: none; opacity: 1; stroke-width: 0px; fill: rgb(99, 110, 250); fill-opacity: 1;" d="M126.93,320V98.81H129.2V320Z"/></g><g class="point"><path style="vector-effect: none; opacity: 1; stroke-width: 0px; fill: rgb(99, 110, 250); fill-opacity: 1;" d="M129.2,320V78.85H131.47V320Z"/></g><g class="point"><path style="vector-effect: none; opacity: 1; stroke-width: 0px; fill: rgb(99, 110, 250); fill-opacity: 1;" d="M131.47,320V69.85H133.73V320Z"/></g><g class="point"><path style="vector-effect: none; opacity: 1; stroke-width: 0px; fill: rgb(99, 110, 250); fill-opacity: 1;" d="M133.73,320V74.66H136V320Z"/></g><g class="point"><path style="vector-effect: none; opacity: 1; stroke-width: 0px; fill: rgb(99, 110, 250); fill-opacity: 1;" d="M136,320V73.3H138.27V320Z"/></g><g class="point"><path style="vector-effect: none; opacity: 1; stroke-width: 0px; fill: rgb(99, 110, 250); fill-opacity: 1;" d="M138.27,320V81.43H140.53V320Z"/></g><g class="point"><path style="vector-effect: none; opacity: 1; stroke-width: 0px; fill: rgb(99, 110, 250); fill-opacity: 1;" d="M140.53,320V100.41H142.8V320Z"/></g><g class="point"><path style="vector-effect: none; opacity: 1; stroke-width: 0px; fill: rgb(99, 110, 250); fill-opacity: 1;" d="M142.8,320V129H145.07V320Z"/></g><g class="point"><path style="vector-effect: none; opacity: 1; stroke-width: 0px; fill: rgb(99, 110, 250); fill-opacity: 1;" d="M145.07,320V134.3H147.33V320Z"/></g><g class="point"><path style="vector-effect: none; opacity: 1; stroke-width: 0px; fill: rgb(99, 110, 250); fill-opacity: 1;" d="M147.33,320V166.46H149.6V320Z"/></g><g class="point"><path style="vector-effect: none; opacity: 1; stroke-width: 0px; fill: rgb(99, 110, 250); fill-opacity: 1;" d="M149.6,320V177.55H151.87V320Z"/></g><g class="point"><path style="vector-effect: none; opacity: 1; stroke-width: 0px; fill: rgb(99, 110, 250); fill-opacity: 1;" d="M151.87,320V192.83H154.13V320Z"/></g><g class="point"><path style="vector-effect: none; opacity: 1; stroke-width: 0px; fill: rgb(99, 110, 250); fill-opacity: 1;" d="M154.13,320V205.15H156.4V320Z"/></g><g class="point"><path style="vector-effect: none; opacity: 1; stroke-width: 0px; fill: rgb(99, 110, 250); fill-opacity: 1;" d="M156.4,320V225.12H158.67V320Z"/></g><g class="point"><path style="vector-effect: none; opacity: 1; stroke-width: 0px; fill: rgb(99, 110, 250); fill-opacity: 1;" d="M158.67,320V230.91H160.93V320Z"/></g><g class="point"><path style="vector-effect: none; opacity: 1; stroke-width: 0px; fill: rgb(99, 110, 250); fill-opacity: 1;" d="M160.93,320V238.92H163.2V320Z"/></g><g class="point"><path style="vector-effect: none; opacity: 1; stroke-width: 0px; fill: rgb(99, 110, 250); fill-opacity: 1;" d="M163.2,320V249.64H165.47V320Z"/></g><g class="point"><path style="vector-effect: none; opacity: 1; stroke-width: 0px; fill: rgb(99, 110, 250); fill-opacity: 1;" d="M165.47,320V250.38H167.73V320Z"/></g><g class="point"><path style="vector-effect: none; opacity: 1; stroke-width: 0px; fill: rgb(99, 110, 250); fill-opacity: 1;" d="M167.73,320V256.78H170V320Z"/></g><g class="point"><path style="vector-effect: none; opacity: 1; stroke-width: 0px; fill: rgb(99, 110, 250); fill-opacity: 1;" d="M170,320V255.68H172.27V320Z"/></g><g class="point"><path style="vector-effect: none; opacity: 1; stroke-width: 0px; fill: rgb(99, 110, 250); fill-opacity: 1;" d="M172.27,320V260.48H174.53V320Z"/></g><g class="point"><path style="vector-effect: none; opacity: 1; stroke-width: 0px; fill: rgb(99, 110, 250); fill-opacity: 1;" d="M174.53,320V258.02H176.8V320Z"/></g><g class="point"><path style="vector-effect: none; opacity: 1; stroke-width: 0px; fill: rgb(99, 110, 250); fill-opacity: 1;" d="M176.8,320V257.89H179.07V320Z"/></g><g class="point"><path style="vector-effect: none; opacity: 1; stroke-width: 0px; fill: rgb(99, 110, 250); fill-opacity: 1;" d="M179.07,320V250.38H181.33V320Z"/></g><g class="point"><path style="vector-effect: none; opacity: 1; stroke-width: 0px; fill: rgb(99, 110, 250); fill-opacity: 1;" d="M181.33,320V254.57H183.6V320Z"/></g><g class="point"><path style="vector-effect: none; opacity: 1; stroke-width: 0px; fill: rgb(99, 110, 250); fill-opacity: 1;" d="M183.6,320V248.04H185.87V320Z"/></g><g class="point"><path style="vector-effect: none; opacity: 1; stroke-width: 0px; fill: rgb(99, 110, 250); fill-opacity: 1;" d="M185.87,320V237.93H188.13V320Z"/></g><g class="point"><path style="vector-effect: none; opacity: 1; stroke-width: 0px; fill: rgb(99, 110, 250); fill-opacity: 1;" d="M188.13,320V237.56H190.4V320Z"/></g><g class="point"><path style="vector-effect: none; opacity: 1; stroke-width: 0px; fill: rgb(99, 110, 250); fill-opacity: 1;" d="M190.4,320V229.8H192.67V320Z"/></g><g class="point"><path style="vector-effect: none; opacity: 1; stroke-width: 0px; fill: rgb(99, 110, 250); fill-opacity: 1;" d="M192.67,320V226.84H194.93V320Z"/></g><g class="point"><path style="vector-effect: none; opacity: 1; stroke-width: 0px; fill: rgb(99, 110, 250); fill-opacity: 1;" d="M194.93,320V224.25H197.2V320Z"/></g><g class="point"><path style="vector-effect: none; opacity: 1; stroke-width: 0px; fill: rgb(99, 110, 250); fill-opacity: 1;" d="M197.2,320V224.75H199.47V320Z"/></g><g class="point"><path style="vector-effect: none; opacity: 1; stroke-width: 0px; fill: rgb(99, 110, 250); fill-opacity: 1;" d="M199.47,320V213.04H201.73V320Z"/></g><g class="point"><path style="vector-effect: none; opacity: 1; stroke-width: 0px; fill: rgb(99, 110, 250); fill-opacity: 1;" d="M201.73,320V203.3H204V320Z"/></g><g class="point"><path style="vector-effect: none; opacity: 1; stroke-width: 0px; fill: rgb(99, 110, 250); fill-opacity: 1;" d="M204,320V210.57H206.27V320Z"/></g><g class="point"><path style="vector-effect: none; opacity: 1; stroke-width: 0px; fill: rgb(99, 110, 250); fill-opacity: 1;" d="M206.27,320V224.38H208.53V320Z"/></g><g class="point"><path style="vector-effect: none; opacity: 1; stroke-width: 0px; fill: rgb(99, 110, 250); fill-opacity: 1;" d="M208.53,320V244.34H210.8V320Z"/></g><g class="point"><path style="vector-effect: none; opacity: 1; stroke-width: 0px; fill: rgb(99, 110, 250); fill-opacity: 1;" d="M210.8,320V248.78H213.07V320Z"/></g><g class="point"><path style="vector-effect: none; opacity: 1; stroke-width: 0px; fill: rgb(99, 110, 250); fill-opacity: 1;" d="M213.07,320V258.76H215.33V320Z"/></g><g class="point"><path style="vector-effect: none; opacity: 1; stroke-width: 0px; fill: rgb(99, 110, 250); fill-opacity: 1;" d="M215.33,320V261.59H217.6V320Z"/></g><g class="point"><path style="vector-effect: none; opacity: 1; stroke-width: 0px; fill: rgb(99, 110, 250); fill-opacity: 1;" d="M217.6,320V267.38H219.87V320Z"/></g><g class="point"><path style="vector-effect: none; opacity: 1; stroke-width: 0px; fill: rgb(99, 110, 250); fill-opacity: 1;" d="M219.87,320V278.6H222.13V320Z"/></g><g class="point"><path style="vector-effect: none; opacity: 1; stroke-width: 0px; fill: rgb(99, 110, 250); fill-opacity: 1;" d="M222.13,320V276.75H224.4V320Z"/></g><g class="point"><path style="vector-effect: none; opacity: 1; stroke-width: 0px; fill: rgb(99, 110, 250); fill-opacity: 1;" d="M224.4,320V280.94H226.67V320Z"/></g><g class="point"><path style="vector-effect: none; opacity: 1; stroke-width: 0px; fill: rgb(99, 110, 250); fill-opacity: 1;" d="M226.67,320V282.05H228.93V320Z"/></g><g class="point"><path style="vector-effect: none; opacity: 1; stroke-width: 0px; fill: rgb(99, 110, 250); fill-opacity: 1;" d="M228.93,320V285.62H231.2V320Z"/></g><g class="point"><path style="vector-effect: none; opacity: 1; stroke-width: 0px; fill: rgb(99, 110, 250); fill-opacity: 1;" d="M231.2,320V287.59H233.47V320Z"/></g><g class="point"><path style="vector-effect: none; opacity: 1; stroke-width: 0px; fill: rgb(99, 110, 250); fill-opacity: 1;" d="M233.47,320V286.48H235.73V320Z"/></g><g class="point"><path style="vector-effect: none; opacity: 1; stroke-width: 0px; fill: rgb(99, 110, 250); fill-opacity: 1;" d="M235.73,320V288.21H238V320Z"/></g><g class="point"><path style="vector-effect: none; opacity: 1; stroke-width: 0px; fill: rgb(99, 110, 250); fill-opacity: 1;" d="M238,320V289.56H240.27V320Z"/></g><g class="point"><path style="vector-effect: none; opacity: 1; stroke-width: 0px; fill: rgb(99, 110, 250); fill-opacity: 1;" d="M240.27,320V288.08H242.53V320Z"/></g><g class="point"><path style="vector-effect: none; opacity: 1; stroke-width: 0px; fill: rgb(99, 110, 250); fill-opacity: 1;" d="M242.53,320V292.03H244.8V320Z"/></g><g class="point"><path style="vector-effect: none; opacity: 1; stroke-width: 0px; fill: rgb(99, 110, 250); fill-opacity: 1;" d="M244.8,320V292.03H247.07V320Z"/></g><g class="point"><path style="vector-effect: none; opacity: 1; stroke-width: 0px; fill: rgb(99, 110, 250); fill-opacity: 1;" d="M247.07,320V289.19H249.33V320Z"/></g><g class="point"><path style="vector-effect: none; opacity: 1; stroke-width: 0px; fill: rgb(99, 110, 250); fill-opacity: 1;" d="M249.33,320V293.51H251.6V320Z"/></g><g class="point"><path style="vector-effect: none; opacity: 1; stroke-width: 0px; fill: rgb(99, 110, 250); fill-opacity: 1;" d="M251.6,320V294.25H253.87V320Z"/></g><g class="point"><path style="vector-effect: none; opacity: 1; stroke-width: 0px; fill: rgb(99, 110, 250); fill-opacity: 1;" d="M253.87,320V293.38H256.13V320Z"/></g><g class="point"><path style="vector-effect: none; opacity: 1; stroke-width: 0px; fill: rgb(99, 110, 250); fill-opacity: 1;" d="M256.13,320V288.33H258.4V320Z"/></g><g class="point"><path style="vector-effect: none; opacity: 1; stroke-width: 0px; fill: rgb(99, 110, 250); fill-opacity: 1;" d="M258.4,320V284.76H260.67V320Z"/></g><g class="point"><path style="vector-effect: none; opacity: 1; stroke-width: 0px; fill: rgb(99, 110, 250); fill-opacity: 1;" d="M260.67,320V289.56H262.93V320Z"/></g><g class="point"><path style="vector-effect: none; opacity: 1; stroke-width: 0px; fill: rgb(99, 110, 250); fill-opacity: 1;" d="M262.93,320V291.9H265.2V320Z"/></g><g class="point"><path style="vector-effect: none; opacity: 1; stroke-width: 0px; fill: rgb(99, 110, 250); fill-opacity: 1;" d="M265.2,320V290.8H267.47V320Z"/></g><g class="point"><path style="vector-effect: none; opacity: 1; stroke-width: 0px; fill: rgb(99, 110, 250); fill-opacity: 1;" d="M267.47,320V293.63H269.73V320Z"/></g><g class="point"><path style="vector-effect: none; opacity: 1; stroke-width: 0px; fill: rgb(99, 110, 250); fill-opacity: 1;" d="M269.73,320V297.2H272V320Z"/></g><g class="point"><path style="vector-effect: none; opacity: 1; stroke-width: 0px; fill: rgb(99, 110, 250); fill-opacity: 1;" d="M272,320V300.78H274.27V320Z"/></g><g class="point"><path style="vector-effect: none; opacity: 1; stroke-width: 0px; fill: rgb(99, 110, 250); fill-opacity: 1;" d="M274.27,320V304.84H276.53V320Z"/></g><g class="point"><path style="vector-effect: none; opacity: 1; stroke-width: 0px; fill: rgb(99, 110, 250); fill-opacity: 1;" d="M276.53,320V310.51H278.8V320Z"/></g><g class="point"><path style="vector-effect: none; opacity: 1; stroke-width: 0px; fill: rgb(99, 110, 250); fill-opacity: 1;" d="M278.8,320V315.32H281.07V320Z"/></g></g></g></g></g><g class="overplot"/><path class="xlines-above crisp" style="fill: none; stroke-width: 1px; stroke: rgb(255, 255, 255); stroke-opacity: 1;" d="M80,420.5H420M80,99.5H420"/><path class="ylines-above crisp" style="fill: none;" d="M0,0"/><g class="overlines-above"/><g class="xaxislayer-above"><path class="xtick ticks crisp" style="stroke: rgb(68, 68, 68); stroke-opacity: 1; stroke-width: 1px;" d="M0,420v-10M0,100v10" transform="translate(148,0)"/><path class="xtick ticks crisp" style="stroke: rgb(68, 68, 68); stroke-opacity: 1; stroke-width: 1px;" d="M0,420v-10M0,100v10" transform="translate(216,0)"/><path class="xtick ticks crisp" style="stroke: rgb(68, 68, 68); stroke-opacity: 1; stroke-width: 1px;" d="M0,420v-10M0,100v10" transform="translate(284,0)"/><path class="xtick ticks crisp" style="stroke: rgb(68, 68, 68); stroke-opacity: 1; stroke-width: 1px;" d="M0,420v-10M0,100v10" transform="translate(352,0)"/><g class="xtick"><text text-anchor="middle" x="0" y="435.4" style="font-family: TOBESTRIPPEDOpen SansTOBESTRIPPED, verdana, arial, sans-serif; font-size: 12px; fill: rgb(42, 63, 95); fill-opacity: 1; white-space: pre; opacity: 1;" transform="translate(80,0)">0</text></g><g class="xtick"><text text-anchor="middle" x="0" y="435.4" style="font-family: TOBESTRIPPEDOpen SansTOBESTRIPPED, verdana, arial, sans-serif; font-size: 12px; fill: rgb(42, 63, 95); fill-opacity: 1; white-space: pre; opacity: 1;" transform="translate(148,0)">30</text></g><g class="xtick"><text text-anchor="middle" x="0" y="435.4" style="font-family: TOBESTRIPPEDOpen SansTOBESTRIPPED, verdana, arial, sans-serif; font-size: 12px; fill: rgb(42, 63, 95); fill-opacity: 1; white-space: pre; opacity: 1;" transform="translate(216,0)">60</text></g><g class="xtick"><text text-anchor="middle" x="0" y="435.4" style="font-family: TOBESTRIPPEDOpen SansTOBESTRIPPED, verdana, arial, sans-serif; font-size: 12px; fill: rgb(42, 63, 95); fill-opacity: 1; white-space: pre; opacity: 1;" transform="translate(284,0)">90</text></g><g class="xtick"><text text-anchor="middle" x="0" y="435.4" style="font-family: TOBESTRIPPEDOpen SansTOBESTRIPPED, verdana, arial, sans-serif; font-size: 12px; fill: rgb(42, 63, 95); fill-opacity: 1; white-space: pre; opacity: 1;" transform="translate(352,0)">120</text></g><g class="xtick"><text text-anchor="middle" x="0" y="435.4" style="font-family: TOBESTRIPPEDOpen SansTOBESTRIPPED, verdana, arial, sans-serif; font-size: 12px; fill: rgb(42, 63, 95); fill-opacity: 1; white-space: pre; opacity: 1;" transform="translate(420,0)">150</text></g></g><g class="yaxislayer-above"><g class="ytick"><text text-anchor="end" x="79" y="4.199999999999999" style="font-family: TOBESTRIPPEDOpen SansTOBESTRIPPED, verdana, arial, sans-serif; font-size: 12px; fill: rgb(42, 63, 95); fill-opacity: 1; white-space: pre; opacity: 1;" transform="translate(0,420)">0</text></g><g class="ytick"><text text-anchor="end" x="79" y="4.199999999999999" style="font-family: TOBESTRIPPEDOpen SansTOBESTRIPPED, verdana, arial, sans-serif; font-size: 12px; fill: rgb(42, 63, 95); fill-opacity: 1; white-space: pre; opacity: 1;" transform="translate(0,358.39)">500</text></g><g class="ytick"><text text-anchor="end" x="79" y="4.199999999999999" style="font-family: TOBESTRIPPEDOpen SansTOBESTRIPPED, verdana, arial, sans-serif; font-size: 12px; fill: rgb(42, 63, 95); fill-opacity: 1; white-space: pre; opacity: 1;" transform="translate(0,296.77)">1000</text></g><g class="ytick"><text text-anchor="end" x="79" y="4.199999999999999" style="font-family: TOBESTRIPPEDOpen SansTOBESTRIPPED, verdana, arial, sans-serif; font-size: 12px; fill: rgb(42, 63, 95); fill-opacity: 1; white-space: pre; opacity: 1;" transform="translate(0,235.16)">1500</text></g><g class="ytick"><text text-anchor="end" x="79" y="4.199999999999999" style="font-family: TOBESTRIPPEDOpen SansTOBESTRIPPED, verdana, arial, sans-serif; font-size: 12px; fill: rgb(42, 63, 95); fill-opacity: 1; white-space: pre; opacity: 1;" transform="translate(0,173.55)">2000</text></g><g class="ytick"><text text-anchor="end" x="79" y="4.199999999999999" style="font-family: TOBESTRIPPEDOpen SansTOBESTRIPPED, verdana, arial, sans-serif; font-size: 12px; fill: rgb(42, 63, 95); fill-opacity: 1; white-space: pre; opacity: 1;" transform="translate(0,111.93)">2500</text></g></g><g class="overaxes-above"/></g></g><g class="polarlayer"/><g class="smithlayer"/><g class="ternarylayer"/><g class="geolayer"/><g class="funnelarealayer"/><g class="pielayer"/><g class="iciclelayer"/><g class="treemaplayer"/><g class="sunburstlayer"/><g class="glimages"/><defs id="topdefs-26695e"><g class="clips"/></defs><g class="layer-above"><g class="imagelayer"/><g class="shapelayer"/></g><g class="infolayer"><g class="g-gtitle"/><g class="g-xtitle"/><g class="g-ytitle"/></g></svg>